# xmcd
# 
# Track frame offsets:
#     150
#     14507
#     25539
#     35744
#     49480
#     69835
#     87210
#     99747
#     110232
# 
# Disc length: 2158
# 
# Revision: 1
# Processed by: cddbd v1.5.2PL0 Copyright (c) Steve Scherf et al.
# Submitted via: BonkEnc v1.0.8
# 
DISCID=75086c09
DTITLE=Blues Nettwork - Blues Nettwork
DYEAR=2000
DGENRE=Blues
TTITLE0=Can't be satisfied (Mc Kinley Morganfield)
TTITLE1=Southbound train (Jerry LaGrange)
TTITLE2=Can't get no grinding (Mc Kinley Morganfield)
TTITLE3=Going up the country (Alan Wilson)
TTITLE4=Mean spider Blues (Jerry LaGrange)
TTITLE5=Shelby County Blues (Blind Willie Newborn)
TTITLE6=One truth (Cla Nett)
TTITLE7=Don't change your lock (DC Clayton)
TTITLE8=Wine, wine, wine (Sticks McGhee)
EXTD=
EXTT0=
EXTT1=
EXTT2=
EXTT3=
EXTT4=
EXTT5=
EXTT6=
EXTT7=
EXTT8=
PLAYORDER=
